<svg width="109" height="27" viewBox="0 0 109 27" fill="none" xmlns="http://www.w3.org/2000/svg">
<path d="M0.56 12.4C0.56 11.3013 0.805333 10.32 1.296 9.456C1.79733 8.58133 2.47467 7.904 3.328 7.424C4.192 6.93333 5.15733 6.688 6.224 6.688C7.472 6.688 8.56533 7.008 9.504 7.648C10.4427 8.288 11.0987 9.17333 11.472 10.304H8.896C8.64 9.77067 8.27733 9.37067 7.808 9.104C7.34933 8.83733 6.816 8.704 6.208 8.704C5.55733 8.704 4.976 8.85867 4.464 9.168C3.96267 9.46667 3.568 9.89333 3.28 10.448C3.00267 11.0027 2.864 11.6533 2.864 12.4C2.864 13.136 3.00267 13.7867 3.28 14.352C3.568 14.9067 3.96267 15.3387 4.464 15.648C4.976 15.9467 5.55733 16.096 6.208 16.096C6.816 16.096 7.34933 15.9627 7.808 15.696C8.27733 15.4187 8.64 15.0133 8.896 14.48H11.472C11.0987 15.6213 10.4427 16.512 9.504 17.152C8.576 17.7813 7.48267 18.096 6.224 18.096C5.15733 18.096 4.192 17.856 3.328 17.376C2.47467 16.8853 1.79733 16.208 1.296 15.344C0.805333 14.48 0.56 13.4987 0.56 12.4ZM15.6253 16.224H19.3053V18H13.3853V6.832H15.6253V16.224ZM22.969 8.64V11.44H26.729V13.216H22.969V16.176H27.209V18H20.729V6.816H27.209V8.64H22.969ZM36.0926 15.872H31.6446L30.9086 18H28.5566L32.5726 6.816H35.1806L39.1966 18H36.8286L36.0926 15.872ZM35.4846 14.08L33.8686 9.408L32.2526 14.08H35.4846ZM50.2498 18H48.0098L42.9378 10.336V18H40.6978V6.816H42.9378L48.0098 14.496V6.816H50.2498V18ZM63.3569 12.4C63.3569 11.3013 63.6022 10.32 64.0929 9.456C64.5942 8.58133 65.2715 7.904 66.1249 7.424C66.9889 6.93333 67.9542 6.688 69.0209 6.688C70.2689 6.688 71.3622 7.008 72.3009 7.648C73.2395 8.288 73.8955 9.17333 74.2689 10.304H71.6929C71.4369 9.77067 71.0742 9.37067 70.6049 9.104C70.1462 8.83733 69.6129 8.704 69.0049 8.704C68.3542 8.704 67.7729 8.85867 67.2609 9.168C66.7595 9.46667 66.3649 9.89333 66.0769 10.448C65.7995 11.0027 65.6609 11.6533 65.6609 12.4C65.6609 13.136 65.7995 13.7867 66.0769 14.352C66.3649 14.9067 66.7595 15.3387 67.2609 15.648C67.7729 15.9467 68.3542 16.096 69.0049 16.096C69.6129 16.096 70.1462 15.9627 70.6049 15.696C71.0742 15.4187 71.4369 15.0133 71.6929 14.48H74.2689C73.8955 15.6213 73.2395 16.512 72.3009 17.152C71.3729 17.7813 70.2795 18.096 69.0209 18.096C67.9542 18.096 66.9889 17.856 66.1249 17.376C65.2715 16.8853 64.5942 16.208 64.0929 15.344C63.6022 14.48 63.3569 13.4987 63.3569 12.4ZM78.3901 6.832V13.744C78.3901 14.5013 78.5875 15.0827 78.9821 15.488C79.3768 15.8827 79.9315 16.08 80.6461 16.08C81.3715 16.08 81.9315 15.8827 82.3261 15.488C82.7208 15.0827 82.9181 14.5013 82.9181 13.744V6.832H85.1741V13.728C85.1741 14.6773 84.9661 15.4827 84.5501 16.144C84.1448 16.7947 83.5955 17.2853 82.9021 17.616C82.2195 17.9467 81.4568 18.112 80.6141 18.112C79.7821 18.112 79.0248 17.9467 78.3421 17.616C77.6701 17.2853 77.1368 16.7947 76.7421 16.144C76.3475 15.4827 76.1501 14.6773 76.1501 13.728V6.832H78.3901ZM91.1944 18.112C90.4157 18.112 89.7117 17.9787 89.0824 17.712C88.4637 17.4453 87.973 17.0613 87.6104 16.56C87.2477 16.0587 87.061 15.4667 87.0504 14.784H89.4504C89.4824 15.2427 89.6424 15.6053 89.9304 15.872C90.229 16.1387 90.6344 16.272 91.1464 16.272C91.669 16.272 92.0797 16.1493 92.3784 15.904C92.677 15.648 92.8264 15.3173 92.8264 14.912C92.8264 14.5813 92.725 14.3093 92.5224 14.096C92.3197 13.8827 92.0637 13.7173 91.7544 13.6C91.4557 13.472 91.0397 13.3333 90.5064 13.184C89.781 12.9707 89.189 12.7627 88.7304 12.56C88.2824 12.3467 87.893 12.032 87.5624 11.616C87.2424 11.1893 87.0824 10.624 87.0824 9.92C87.0824 9.25867 87.2477 8.68267 87.5784 8.192C87.909 7.70133 88.373 7.328 88.9704 7.072C89.5677 6.80533 90.2504 6.672 91.0184 6.672C92.1704 6.672 93.1037 6.95467 93.8184 7.52C94.5437 8.07467 94.9437 8.85333 95.0184 9.856H92.5544C92.533 9.472 92.3677 9.15733 92.0584 8.912C91.7597 8.656 91.3597 8.528 90.8584 8.528C90.421 8.528 90.069 8.64 89.8024 8.864C89.5464 9.088 89.4184 9.41333 89.4184 9.84C89.4184 10.1387 89.5144 10.3893 89.7064 10.592C89.909 10.784 90.1544 10.944 90.4424 11.072C90.741 11.1893 91.157 11.328 91.6904 11.488C92.4157 11.7013 93.0077 11.9147 93.4664 12.128C93.925 12.3413 94.3197 12.6613 94.6504 13.088C94.981 13.5147 95.1464 14.0747 95.1464 14.768C95.1464 15.3653 94.9917 15.92 94.6824 16.432C94.373 16.944 93.9197 17.3547 93.3224 17.664C92.725 17.9627 92.0157 18.112 91.1944 18.112ZM104.688 6.832V8.64H101.712V18H99.4724V8.64H96.4964V6.832H104.688Z" fill="white"/>
<path d="M52.0457 2L54.1885 8.22412C54.2577 8.40863 54.3536 8.49344 54.4837 8.54643C54.6141 8.59955 54.7837 8.60186 54.9344 8.55428C55.0852 8.5067 55.2079 8.40895 55.2604 8.32723C55.3129 8.24546 55.327 8.20878 55.281 8.08517L55.2791 8.07999L53.1836 2H52.0457ZM55.884 7.55008L55.9607 7.77228L55.957 7.76198C56.0934 8.12864 56.0315 8.53908 55.8538 8.81617C55.6761 9.09315 55.4147 9.26583 55.1314 9.35527C54.8481 9.44475 54.5341 9.45066 54.2355 9.32894C53.9368 9.20726 53.6585 8.93872 53.5123 8.54717L53.5103 8.54172L53.4386 8.33384C52.1624 9.24869 51.7075 10.2753 51.9971 11.5163C52.0476 11.7325 52.1365 12.0874 52.2401 12.5386C55.2715 12.2949 57.9444 11.4358 60.3845 10.1549C59.9648 9.51427 59.4674 8.96163 58.8261 8.55973C57.9903 8.03587 56.8838 7.62857 55.8841 7.55004L55.884 7.55008ZM60.7981 10.854C58.2914 12.1849 55.5329 13.0888 52.4186 13.3576C52.5014 13.7587 52.5849 14.2021 52.6612 14.674C56.313 14.2081 59.3069 13.4627 61.5371 12.4211C61.303 11.8797 61.0645 11.3499 60.7981 10.854ZM61.8595 13.1712C59.5323 14.2693 56.4794 15.023 52.7808 15.4958C53.148 18.3266 53.1038 21.8065 51 23.3424C51.6632 23.3424 52.2999 23.3354 52.9127 23.3216C53.6399 22.1411 54.1873 20.2624 54.2204 19.342C54.5574 20.1178 54.3547 22.0823 54.0019 23.2887C54.1134 23.2844 54.2234 23.2798 54.3331 23.275C54.8151 22.7023 54.811 21.9523 54.9331 21.0907C55.0686 21.7799 55.2185 22.6136 55.3206 23.2229C55.7801 23.1944 56.2235 23.161 56.6496 23.122C57.3173 22.1816 57.5321 20.8305 57.409 19.1732C57.5813 20.5175 57.7806 22.0437 57.8929 22.9867C58.2868 22.9366 58.6643 22.8809 59.0264 22.8197C59.2318 21.9518 58.8593 20.5818 58.9419 19.6073C59.3953 21.5989 59.8487 22.1688 60.3021 22.5658C60.523 22.5143 60.7364 22.4599 60.9434 22.4029C60.7518 21.7585 61.0075 21.3636 60.9915 20.5557C61.2217 21.433 61.5876 21.8011 61.9872 22.0717C62.2524 21.9747 62.5032 21.8714 62.741 21.7623C62.3114 21.4588 62.3288 20.5439 62.2363 19.7793C62.479 20.7819 62.8238 21.2769 63.218 21.5262C64.4051 20.8887 65.2026 20.0695 65.6799 19.0475C65.3098 18.8711 64.9187 18.4469 64.5358 18.1194C65.0744 18.4648 65.5012 18.6097 65.8552 18.6243C65.9091 18.4762 65.9577 18.3245 66 18.1684C63.7041 17.2663 62.7363 15.2111 61.8595 13.1711L61.8595 13.1712Z" fill="white"/>
</svg>
